<?xml version="1.0" encoding="utf-8"?>
<!-- Generator: Adobe Illustrator 26.0.1, SVG Export Plug-In . SVG Version: 6.00 Build 0)  -->
<svg version="1.1" id="Layer_1" xmlns="http://www.w3.org/2000/svg" xmlns:xlink="http://www.w3.org/1999/xlink" x="0px" y="0px"
	 viewBox="0 0 1812.3 543.7" style="enable-background:new 0 0 1812.3 543.7;" xml:space="preserve">
<style type="text/css">
	.st0{fill:#FFFFFF;}
</style>
<path class="st0" d="M271.6,0C121.5,0-0.2,121.7-0.2,271.8s121.7,271.9,271.8,271.9s271.8-121.7,271.8-271.9S421.7,0,271.6,0
	L271.6,0z M396.2,392c-4.9,8-15.3,10.5-23.3,5.6c-63.8-39-144.2-47.8-238.8-26.2c-9.2,1.7-18-4.4-19.7-13.6
	c-1.6-8.7,3.7-17.1,12.2-19.4c103.5-23.7,192.4-13.5,264,30.3C398.6,373.6,401.1,384,396.2,392C396.2,392,396.2,392,396.2,392
	L396.2,392z M429.5,318c-6.1,10-19.2,13.1-29.1,7c-73.1-44.9-184.4-57.9-270.9-31.7c-11.2,3.4-23-2.9-26.4-14.1
	c-3.4-11.2,2.9-23,14.1-26.4l0,0c98.7-30,221.4-15.5,305.3,36.1C432.5,295,435.6,308,429.5,318C429.5,318,429.5,318,429.5,318
	L429.5,318z M432.4,240.9c-87.6-52-232.1-56.8-315.8-31.4c-13.4,4.1-27.6-3.4-31.8-16.8c-4.1-13.4,3.4-27.6,16.8-31.8
	c0.1,0,0.1,0,0.2,0c96-29.1,255.6-23.5,356.5,36.4c12.1,7.2,16.1,22.8,8.9,34.8C460,244.1,444.4,248.1,432.4,240.9L432.4,240.9z
	 M739.3,250.9c-46.9-11.2-55.3-19-55.3-35.5c0-15.6,14.7-26.1,36.5-26.1c21.2,0,42.1,8,64.1,24.4c1.4,1,3.3,0.7,4.3-0.6
	c0,0,0,0,0-0.1l22.9-32.3c0.9-1.3,0.7-3.2-0.6-4.2c-26.2-21-55.7-31.2-90.1-31.2c-50.7,0-86.1,30.4-86.1,73.9
	c0,46.7,30.5,63.2,83.3,75.9c44.9,10.3,52.5,19,52.5,34.5c0,17.2-15.3,27.8-40,27.8c-27.4,0-49.7-9.2-74.7-30.9
	c-0.6-0.5-1.4-0.8-2.3-0.7c-0.8,0.1-1.6,0.4-2.1,1.1l-25.7,30.6c-1.1,1.2-1,3.1,0.3,4.2c0,0,0,0,0,0c29.1,26,64.9,39.7,103.5,39.7
	c54.6,0,89.9-29.8,89.9-76C819.9,286.5,796.6,264.9,739.3,250.9L739.3,250.9L739.3,250.9z M943.3,204.6c-23.7,0-43.1,9.3-59.1,28.4
	v-21.5c0-1.7-1.4-3.1-3.1-3.1c0,0,0,0,0,0h-42c-1.7,0-3.1,1.4-3.1,3.1c0,0,0,0,0,0v238.9c0,1.7,1.4,3.1,3.1,3.1h42
	c1.7,0,3.1-1.4,3.1-3.1v-75.4c16,18,35.4,26.7,59.1,26.7c44,0,88.5-33.9,88.5-98.6S987.3,204.6,943.3,204.6L943.3,204.6z
	 M982.9,303.2c0,33-20.3,56-49.4,56c-28.7,0-50.4-24-50.4-56s21.7-56,50.4-56S982.9,270.8,982.9,303.2L982.9,303.2z M1145.9,204.6
	c-56.6,0-101,43.6-101,99.3c0,55.1,44.1,98.2,100.3,98.2c56.8,0,101.3-43.5,101.3-98.9C1246.6,248,1202.4,204.7,1145.9,204.6
	L1145.9,204.6z M1145.9,359.5c-30.1,0-52.8-24.2-52.8-56.3s21.9-55.6,52.1-55.6s53.2,24.2,53.2,56.3S1176.3,359.5,1145.9,359.5z
	 M1367.5,208.5h-46.2v-47.3c0-1.7-1.4-3.1-3.1-3.1c0,0,0,0,0,0h-42c-1.7,0-3.1,1.4-3.1,3.1v47.3h-20.2c-1.7,0-3.1,1.4-3.1,3.1
	c0,0,0,0,0,0v36.1c0,1.7,1.4,3.1,3.1,3.1c0,0,0,0,0,0h20.2v93.4c0,37.8,18.8,56.9,55.9,56.9c15.1,0,27.6-3.1,39.4-9.8
	c1-0.5,1.5-1.6,1.6-2.7v-34.4c0-1.7-1.4-3.1-3.1-3.1c-0.5,0-0.9,0.1-1.4,0.3c-7.6,4-16.1,6-24.7,6c-13.5,0-19.5-6.1-19.5-19.9v-86.9
	h46.2c1.7,0,3.1-1.4,3.1-3.1c0,0,0,0,0,0v-36.1c0-1.7-1.3-3-2.9-3.1C1367.7,208.5,1367.6,208.5,1367.5,208.5L1367.5,208.5z
	 M1528.6,208.7v-5.8c0-17.1,6.6-24.7,21.2-24.7c8.8,0,15.8,1.7,23.7,4.4c1.6,0.5,3.3-0.4,3.9-2c0.1-0.3,0.1-0.6,0.1-0.9v-35.4
	c0-1.4-0.9-2.6-2.2-3c-11.3-3.5-23.1-5.1-34.9-5c-38.8,0-59.3,21.9-59.3,63.2v8.9H1461c-1.7,0-3.1,1.4-3.1,3.1v36.3
	c0,1.7,1.4,3.1,3.1,3.1h20.2v144.2c0,1.7,1.4,3.1,3.1,3.1h42c1.7,0,3.1-1.4,3.1-3.1V250.8h39.2l60.1,144.1
	c-6.8,15.1-13.5,18.2-22.7,18.2c-7.4,0-15.2-2.2-23.2-6.6c-0.8-0.4-1.6-0.5-2.4-0.2c-0.8,0.3-1.5,0.9-1.8,1.7l-14.2,31.2
	c-0.7,1.5-0.1,3.3,1.3,4c14.9,8.1,28.3,11.5,44.9,11.5c31,0,48.2-14.5,63.3-53.3l72.9-188.4c0.4-0.9,0.2-2-0.3-2.9
	c-0.6-0.8-1.5-1.4-2.5-1.3h-43.7c-1.3,0-2.5,0.8-2.9,2.1l-44.8,128l-49.1-128.1c-0.4-1.2-1.6-2-2.9-2L1528.6,208.7L1528.6,208.7z
	 M1435.2,208.5h-42c-1.7,0-3.1,1.4-3.1,3.1v183.3c0,1.7,1.4,3.1,3.1,3.1h42c1.7,0,3.1-1.4,3.1-3.1V211.6
	C1438.3,209.9,1436.9,208.5,1435.2,208.5C1435.2,208.5,1435.2,208.5,1435.2,208.5L1435.2,208.5L1435.2,208.5z M1414.5,125
	c-16.6,0-30.1,13.5-30.2,30.1c0,16.6,13.5,30.1,30.1,30.1s30.1-13.5,30.2-30.1c0,0,0,0,0,0C1444.6,138.5,1431.1,125,1414.5,125z
	 M1782.6,267.4c-16.4,0-29.6-13.4-29.6-29.7c0-16.4,13.4-29.6,29.7-29.6c16.3,0,29.5,13.2,29.6,29.5c0.2,16.3-12.9,29.6-29.2,29.7
	C1783,267.4,1782.8,267.4,1782.6,267.4L1782.6,267.4z M1782.8,211.1c-14.8-0.1-26.8,11.7-26.9,26.5c-0.1,14.8,11.7,26.8,26.5,26.9
	s26.8-11.7,26.9-26.5c0-0.1,0-0.2,0-0.3c0.1-14.6-11.7-26.5-26.3-26.6C1782.9,211.1,1782.8,211.1,1782.8,211.1L1782.8,211.1z
	 M1789.3,240.7l8.4,11.7h-7.1l-7.5-10.8h-6.5v10.7h-5.9v-31h13.8c7.2,0,12,3.7,12,9.9C1796.6,236.4,1793.6,239.5,1789.3,240.7
	L1789.3,240.7z M1784.3,226.7h-7.7v9.8h7.7c3.8,0,6.1-1.9,6.1-4.9C1790.5,228.5,1788.1,226.7,1784.3,226.7z"/>
</svg>
